<svg version="1.1" id="Layer_1" xmlns="http://www.w3.org/2000/svg" xmlns:xlink="http://www.w3.org/1999/xlink" x="0px" y="0px"
	 width="100%" viewBox="0 0 512 512" enable-background="new 0 0 512 512" xml:space="preserve">
<path fill="#A5ECD7" opacity="1.000000" stroke="none" 
	d="
M1.000000,410.000000 
	C1.000000,286.312439 1.000000,162.624878 1.298168,38.795418 
	C1.975962,38.329987 2.578908,38.075371 2.703091,37.672997 
	C8.131359,20.084515 19.422913,8.340934 37.124367,2.883152 
	C37.567646,2.746477 37.714760,1.649242 38.000000,1.000000 
	C183.687561,1.000000 329.375122,1.000000 475.204712,1.298220 
	C475.670349,1.976001 475.925201,2.579050 476.327545,2.702974 
	C493.924774,8.122552 505.582672,19.500612 511.116730,37.124287 
	C511.256500,37.569424 512.350830,37.714821 513.000000,38.000008 
	C513.000000,42.356899 513.000000,46.713799 512.533875,51.480087 
	C493.071442,51.872894 474.074127,51.954163 455.079651,51.759876 
	C451.125214,51.719433 449.212799,52.978729 447.793457,56.772194 
	C439.041962,80.161644 430.001465,103.442917 421.069824,126.765045 
	C403.385284,172.942429 385.715881,219.125626 368.024109,265.300262 
	C363.941376,275.956085 359.793823,286.587097 355.243134,298.348450 
	C353.921600,295.164246 352.988251,293.089844 352.189209,290.964905 
	C322.771973,212.734283 293.340393,134.509033 264.049927,56.230972 
	C262.757904,52.778061 261.063385,51.743618 257.543457,51.769260 
	C237.548172,51.914940 217.549957,51.961475 197.555939,51.745228 
	C193.153030,51.697609 191.878021,52.982571 191.917114,57.391399 
	C192.122467,80.552025 192.012939,103.715431 192.012924,126.877876 
	C192.012909,208.862930 192.060181,290.848083 191.899246,372.832825 
	C191.889267,377.916443 193.237061,379.378632 198.309158,379.234467 
	C210.963287,378.874756 223.638779,378.927643 236.296600,379.215118 
	C240.902008,379.319702 242.208710,377.911011 242.197693,373.310394 
	C242.015640,297.158051 242.002090,221.005325 241.950989,144.852692 
	C241.949966,143.328491 241.950851,141.804291 241.950851,140.280075 
	C245.558563,147.173203 248.246384,154.122177 250.864700,161.097244 
	C277.662750,232.485718 304.462982,303.873383 331.187714,375.289307 
	C332.210907,378.023651 333.516632,379.224335 336.567749,379.180084 
	C347.896637,379.015747 359.231384,378.994232 370.559357,379.187561 
	C374.000580,379.246277 375.476929,377.921783 376.662018,374.797729 
	C405.124542,299.765167 433.688843,224.771179 462.248535,149.775482 
	C463.752808,145.825424 465.379395,141.921951 466.949005,137.996780 
	C467.430420,141.568069 467.088074,144.867050 467.084229,148.166428 
	C466.996765,223.319138 466.946259,298.471893 466.889130,373.624664 
	C466.888763,374.124573 466.936768,374.628998 466.886719,375.123657 
	C466.574677,378.208740 468.069611,379.175262 471.011810,379.149475 
	C485.007233,379.026581 499.003815,379.037018 513.000000,379.000000 
	C513.000000,411.020905 513.000000,443.041779 512.702087,475.204407 
	C512.024292,475.669495 511.420471,475.923920 511.296692,476.326050 
	C505.880249,493.926270 494.498962,505.581207 476.876068,511.116577 
	C476.430756,511.256439 476.285278,512.350769 476.000000,513.000000 
	C330.312439,513.000000 184.624878,513.000000 38.795242,512.701721 
	C38.329220,512.023804 38.073193,511.417358 37.671581,511.297058 
	C19.961945,505.992645 8.456258,494.462738 2.883338,476.879761 
	C2.741575,476.432465 1.649092,476.286499 1.000002,476.000000 
	C1.000000,470.311951 1.000000,464.623932 1.392926,458.467041 
	C17.588850,463.021637 33.726040,464.252197 50.102043,461.934662 
	C74.873047,458.429077 95.373795,447.577271 109.183136,426.120605 
	C119.027939,410.823944 122.767570,393.422729 122.821648,375.645508 
	C123.144928,269.362274 122.985435,163.077621 123.102608,56.793575 
	C123.107109,52.709724 121.672043,51.723793 117.882355,51.772057 
	C104.224213,51.945995 90.562508,51.837486 76.902153,51.840786 
	C69.934608,51.842468 69.929428,51.847393 69.929344,58.977207 
	C69.928185,160.430328 69.944664,261.883453 69.889809,363.336548 
	C69.886398,369.643555 69.544350,375.969727 68.983765,382.253418 
	C67.152718,402.778534 54.720226,414.508667 34.062496,413.945435 
	C23.014021,413.644196 12.019093,411.378937 1.000000,410.000000 
z"/>
<path fill="#FFFFFF" opacity="1.000000" stroke="none" 
	d="
M513.000000,378.531342 
	C499.003815,379.037018 485.007233,379.026581 471.011810,379.149475 
	C468.069611,379.175262 466.574677,378.208740 466.886719,375.123657 
	C466.936768,374.628998 466.888763,374.124573 466.889130,373.624664 
	C466.946259,298.471893 466.996765,223.319138 467.084229,148.166428 
	C467.088074,144.867050 467.430420,141.568069 466.949005,137.996780 
	C465.379395,141.921951 463.752808,145.825424 462.248535,149.775482 
	C433.688843,224.771179 405.124542,299.765167 376.662018,374.797729 
	C375.476929,377.921783 374.000580,379.246277 370.559357,379.187561 
	C359.231384,378.994232 347.896637,379.015747 336.567749,379.180084 
	C333.516632,379.224335 332.210907,378.023651 331.187714,375.289307 
	C304.462982,303.873383 277.662750,232.485718 250.864700,161.097244 
	C248.246384,154.122177 245.558563,147.173203 241.950851,140.280075 
	C241.950851,141.804291 241.949966,143.328491 241.950989,144.852692 
	C242.002090,221.005325 242.015640,297.158051 242.197693,373.310394 
	C242.208710,377.911011 240.902008,379.319702 236.296600,379.215118 
	C223.638779,378.927643 210.963287,378.874756 198.309158,379.234467 
	C193.237061,379.378632 191.889267,377.916443 191.899246,372.832825 
	C192.060181,290.848083 192.012909,208.862930 192.012924,126.877876 
	C192.012939,103.715431 192.122467,80.552025 191.917114,57.391399 
	C191.878021,52.982571 193.153030,51.697609 197.555939,51.745228 
	C217.549957,51.961475 237.548172,51.914940 257.543457,51.769260 
	C261.063385,51.743618 262.757904,52.778061 264.049927,56.230972 
	C293.340393,134.509033 322.771973,212.734283 352.189209,290.964905 
	C352.988251,293.089844 353.921600,295.164246 355.243134,298.348450 
	C359.793823,286.587097 363.941376,275.956085 368.024109,265.300262 
	C385.715881,219.125626 403.385284,172.942429 421.069824,126.765045 
	C430.001465,103.442917 439.041962,80.161644 447.793457,56.772194 
	C449.212799,52.978729 451.125214,51.719433 455.079651,51.759876 
	C474.074127,51.954163 493.071442,51.872894 512.533875,51.944736 
	C513.000000,160.687561 513.000000,269.375122 513.000000,378.531342 
z"/>
<path fill="#FFFFFF" opacity="1.000000" stroke="none" 
	d="
M1.000000,410.468658 
	C12.019093,411.378937 23.014021,413.644196 34.062496,413.945435 
	C54.720226,414.508667 67.152718,402.778534 68.983765,382.253418 
	C69.544350,375.969727 69.886398,369.643555 69.889809,363.336548 
	C69.944664,261.883453 69.928185,160.430328 69.929344,58.977207 
	C69.929428,51.847393 69.934608,51.842468 76.902153,51.840786 
	C90.562508,51.837486 104.224213,51.945995 117.882355,51.772057 
	C121.672043,51.723793 123.107109,52.709724 123.102608,56.793575 
	C122.985435,163.077621 123.144928,269.362274 122.821648,375.645508 
	C122.767570,393.422729 119.027939,410.823944 109.183136,426.120605 
	C95.373795,447.577271 74.873047,458.429077 50.102043,461.934662 
	C33.726040,464.252197 17.588850,463.021637 1.392926,457.999115 
	C1.000000,442.312439 1.000000,426.624878 1.000000,410.468658 
z"/>
<path fill="#A5ECD7" opacity="1.000000" stroke="none" 
	d="
M513.000000,37.531349 
	C512.350830,37.714821 511.256500,37.569424 511.116730,37.124287 
	C505.582672,19.500612 493.924774,8.122552 476.327545,2.702974 
	C475.925201,2.579050 475.670349,1.976001 475.673340,1.298220 
	C488.259949,1.000000 500.519897,1.000000 513.000000,1.000000 
	C513.000000,13.020000 513.000000,25.041342 513.000000,37.531349 
z"/>
<path fill="#A5ECD7" opacity="1.000000" stroke="none" 
	d="
M476.468658,513.000000 
	C476.285278,512.350769 476.430756,511.256439 476.876068,511.116577 
	C494.498962,505.581207 505.880249,493.926270 511.296692,476.326050 
	C511.420471,475.923920 512.024292,475.669495 512.702087,475.673096 
	C513.000000,488.259949 513.000000,500.519897 513.000000,513.000000 
	C500.980011,513.000000 488.958649,513.000000 476.468658,513.000000 
z"/>
<path fill="#A5ECD7" opacity="1.000000" stroke="none" 
	d="
M37.531342,1.000000 
	C37.714760,1.649242 37.567646,2.746477 37.124367,2.883152 
	C19.422913,8.340934 8.131359,20.084515 2.703091,37.672997 
	C2.578908,38.075371 1.975962,38.329987 1.298168,38.326759 
	C1.000000,25.740049 1.000000,13.480098 1.000000,1.000000 
	C13.020000,1.000000 25.041342,1.000000 37.531342,1.000000 
z"/>
<path fill="#A5ECD7" opacity="1.000000" stroke="none" 
	d="
M1.000002,476.468658 
	C1.649092,476.286499 2.741575,476.432465 2.883338,476.879761 
	C8.456258,494.462738 19.961945,505.992645 37.671581,511.297058 
	C38.073193,511.417358 38.329220,512.023804 38.326584,512.701721 
	C25.740049,513.000000 13.480098,513.000000 1.000000,513.000000 
	C1.000000,500.980011 1.000000,488.958649 1.000002,476.468658 
z"/>
</svg>